<?xml version="1.0" encoding="UTF-8"?>
<svg xmlns="http://www.w3.org/2000/svg" viewBox="0 0 281 440" data-braid-id="mitake-24" data-braid-name="24股御岳组">
  <title>24股御岳组 surface texture</title>
  <path id="seg-000" data-thread-id="2" fill="#272f7c" stroke="#201f1d" stroke-width="1" d="M10,46 A52.479,52.479 0 0,1 28,28 A26.239,26.239 0 0,1 37,37 A78.718,78.718 0 0,1 10,64 A37.108,37.108 0 0,1 10,46 A0,0 0 0,1 10,46"/>
  <path id="seg-001" data-thread-id="8" fill="#96da52" stroke="#201f1d" stroke-width="1" d="M28,28 A26.239,26.239 0 0,1 37,19 A52.479,52.479 0 0,1 55,37 A26.239,26.239 0 0,1 46,46 A52.479,52.479 0 0,1 28,28 A0,0 0 0,1 28,28"/>
  <path id="seg-002" data-thread-id="21" fill="#272f7c" stroke="#201f1d" stroke-width="1" d="M46,46 A78.718,78.718 0 0,1 73,19 A26.239,26.239 0 0,1 82,28 A78.718,78.718 0 0,1 55,55 A26.239,26.239 0 0,1 46,46 A0,0 0 0,1 46,46"/>
  <path id="seg-003" data-thread-id="3" fill="#272f7c" stroke="#201f1d" stroke-width="1" d="M82,28 A52.479,52.479 0 0,1 100,46 A37.108,37.108 0 0,1 100,64 A78.718,78.718 0 0,1 73,37 A26.239,26.239 0 0,1 82,28 A0,0 0 0,1 82,28"/>
  <path id="seg-004" data-thread-id="3" fill="#272f7c" stroke="#201f1d" stroke-width="1" d="M109,46 A52.479,52.479 0 0,1 127,64 A26.239,26.239 0 0,1 118,73 A26.239,26.239 0 0,1 109,64 A37.108,37.108 0 0,1 109,46 A0,0 0 0,1 109,46"/>
  <path id="seg-005" data-thread-id="14" fill="#88abfb" stroke="#201f1d" stroke-width="1" d="M127,64 A26.239,26.239 0 0,1 118,55 A52.479,52.479 0 0,1 136,37 A37.108,37.108 0 0,1 136,55 A26.239,26.239 0 0,1 127,64 A0,0 0 0,1 127,64"/>
  <path id="seg-006" data-thread-id="14" fill="#88abfb" stroke="#201f1d" stroke-width="1" d="M145,37 A52.479,52.479 0 0,1 163,19 A26.239,26.239 0 0,1 172,28 A78.718,78.718 0 0,1 145,55 A37.108,37.108 0 0,1 145,37 A0,0 0 0,1 145,37"/>
  <path id="seg-007" data-thread-id="0" fill="#96da52" stroke="#201f1d" stroke-width="1" d="M163,19 A26.239,26.239 0 0,1 172,10 A52.479,52.479 0 0,1 190,28 A26.239,26.239 0 0,1 181,37 A52.479,52.479 0 0,1 163,19 A0,0 0 0,1 163,19"/>
  <path id="seg-008" data-thread-id="5" fill="#88abfb" stroke="#201f1d" stroke-width="1" d="M181,37 A78.718,78.718 0 0,1 208,10 A26.239,26.239 0 0,1 217,19 A78.718,78.718 0 0,1 190,46 A26.239,26.239 0 0,1 181,37 A0,0 0 0,1 181,37"/>
  <path id="seg-009" data-thread-id="15" fill="#88abfb" stroke="#201f1d" stroke-width="1" d="M217,19 A52.479,52.479 0 0,1 235,37 A37.108,37.108 0 0,1 235,55 A78.718,78.718 0 0,1 208,28 A26.239,26.239 0 0,1 217,19 A0,0 0 0,1 217,19"/>
  <path id="seg-010" data-thread-id="15" fill="#88abfb" stroke="#201f1d" stroke-width="1" d="M244,37 A52.479,52.479 0 0,1 262,55 A26.239,26.239 0 0,1 253,64 A26.239,26.239 0 0,1 244,55 A37.108,37.108 0 0,1 244,37 A0,0 0 0,1 244,37"/>
  <path id="seg-011" data-thread-id="11" fill="#272f7c" stroke="#201f1d" stroke-width="1" d="M262,55 A26.239,26.239 0 0,1 253,46 A52.479,52.479 0 0,1 271,28 A37.108,37.108 0 0,1 271,46 A26.239,26.239 0 0,1 262,55 A0,0 0 0,1 262,55"/>
  <path id="seg-012" data-thread-id="1" fill="#96da52" stroke="#201f1d" stroke-width="1" d="M10,64 A52.479,52.479 0 0,1 28,46 A26.239,26.239 0 0,1 37,55 A78.718,78.718 0 0,1 10,82 A37.108,37.108 0 0,1 10,64 A0,0 0 0,1 10,64"/>
  <path id="seg-013" data-thread-id="7" fill="#88abfb" stroke="#201f1d" stroke-width="1" d="M28,46 A26.239,26.239 0 0,1 37,37 A52.479,52.479 0 0,1 55,55 A26.239,26.239 0 0,1 46,64 A52.479,52.479 0 0,1 28,46 A0,0 0 0,1 28,46"/>
  <path id="seg-014" data-thread-id="22" fill="#88abfb" stroke="#201f1d" stroke-width="1" d="M46,64 A78.718,78.718 0 0,1 73,37 A26.239,26.239 0 0,1 82,46 A78.718,78.718 0 0,1 55,73 A26.239,26.239 0 0,1 46,64 A0,0 0 0,1 46,64"/>
  <path id="seg-015" data-thread-id="4" fill="#88abfb" stroke="#201f1d" stroke-width="1" d="M82,46 A52.479,52.479 0 0,1 100,64 A37.108,37.108 0 0,1 100,82 A78.718,78.718 0 0,1 73,55 A26.239,26.239 0 0,1 82,46 A0,0 0 0,1 82,46"/>
  <path id="seg-016" data-thread-id="4" fill="#88abfb" stroke="#201f1d" stroke-width="1" d="M109,64 A52.479,52.479 0 0,1 127,82 A26.239,26.239 0 0,1 118,91 A26.239,26.239 0 0,1 109,82 A37.108,37.108 0 0,1 109,64 A0,0 0 0,1 109,64"/>
  <path id="seg-017" data-thread-id="13" fill="#272f7c" stroke="#201f1d" stroke-width="1" d="M127,82 A26.239,26.239 0 0,1 118,73 A52.479,52.479 0 0,1 136,55 A37.108,37.108 0 0,1 136,73 A26.239,26.239 0 0,1 127,82 A0,0 0 0,1 127,82"/>
  <path id="seg-018" data-thread-id="13" fill="#272f7c" stroke="#201f1d" stroke-width="1" d="M145,55 A52.479,52.479 0 0,1 163,37 A26.239,26.239 0 0,1 172,46 A78.718,78.718 0 0,1 145,73 A37.108,37.108 0 0,1 145,55 A0,0 0 0,1 145,55"/>
  <path id="seg-019" data-thread-id="20" fill="#272f7c" stroke="#201f1d" stroke-width="1" d="M163,37 A26.239,26.239 0 0,1 172,28 A52.479,52.479 0 0,1 190,46 A26.239,26.239 0 0,1 181,55 A52.479,52.479 0 0,1 163,37 A0,0 0 0,1 163,37"/>
  <path id="seg-020" data-thread-id="9" fill="#96da52" stroke="#201f1d" stroke-width="1" d="M181,55 A78.718,78.718 0 0,1 208,28 A26.239,26.239 0 0,1 217,37 A78.718,78.718 0 0,1 190,64 A26.239,26.239 0 0,1 181,55 A0,0 0 0,1 181,55"/>
  <path id="seg-021" data-thread-id="16" fill="#96da52" stroke="#201f1d" stroke-width="1" d="M217,37 A52.479,52.479 0 0,1 235,55 A37.108,37.108 0 0,1 235,73 A78.718,78.718 0 0,1 208,46 A26.239,26.239 0 0,1 217,37 A0,0 0 0,1 217,37"/>
  <path id="seg-022" data-thread-id="16" fill="#96da52" stroke="#201f1d" stroke-width="1" d="M244,55 A52.479,52.479 0 0,1 262,73 A26.239,26.239 0 0,1 253,82 A26.239,26.239 0 0,1 244,73 A37.108,37.108 0 0,1 244,55 A0,0 0 0,1 244,55"/>
  <path id="seg-023" data-thread-id="2" fill="#272f7c" stroke="#201f1d" stroke-width="1" d="M262,73 A26.239,26.239 0 0,1 253,64 A52.479,52.479 0 0,1 271,46 A37.108,37.108 0 0,1 271,64 A26.239,26.239 0 0,1 262,73 A0,0 0 0,1 262,73"/>
  <path id="seg-024" data-thread-id="0" fill="#96da52" stroke="#201f1d" stroke-width="1" d="M10,82 A52.479,52.479 0 0,1 28,64 A26.239,26.239 0 0,1 37,73 A78.718,78.718 0 0,1 10,100 A37.108,37.108 0 0,1 10,82 A0,0 0 0,1 10,82"/>
  <path id="seg-025" data-thread-id="6" fill="#88abfb" stroke="#201f1d" stroke-width="1" d="M28,64 A26.239,26.239 0 0,1 37,55 A52.479,52.479 0 0,1 55,73 A26.239,26.239 0 0,1 46,82 A52.479,52.479 0 0,1 28,64 A0,0 0 0,1 28,64"/>
  <path id="seg-026" data-thread-id="23" fill="#88abfb" stroke="#201f1d" stroke-width="1" d="M46,82 A78.718,78.718 0 0,1 73,55 A26.239,26.239 0 0,1 82,64 A78.718,78.718 0 0,1 55,91 A26.239,26.239 0 0,1 46,82 A0,0 0 0,1 46,82"/>
  <path id="seg-027" data-thread-id="5" fill="#88abfb" stroke="#201f1d" stroke-width="1" d="M82,64 A52.479,52.479 0 0,1 100,82 A37.108,37.108 0 0,1 100,100 A78.718,78.718 0 0,1 73,73 A26.239,26.239 0 0,1 82,64 A0,0 0 0,1 82,64"/>
  <path id="seg-028" data-thread-id="5" fill="#88abfb" stroke="#201f1d" stroke-width="1" d="M109,82 A52.479,52.479 0 0,1 127,100 A26.239,26.239 0 0,1 118,109 A26.239,26.239 0 0,1 109,100 A37.108,37.108 0 0,1 109,82 A0,0 0 0,1 109,82"/>
  <path id="seg-029" data-thread-id="12" fill="#272f7c" stroke="#201f1d" stroke-width="1" d="M127,100 A26.239,26.239 0 0,1 118,91 A52.479,52.479 0 0,1 136,73 A37.108,37.108 0 0,1 136,91 A26.239,26.239 0 0,1 127,100 A0,0 0 0,1 127,100"/>
  <path id="seg-030" data-thread-id="12" fill="#272f7c" stroke="#201f1d" stroke-width="1" d="M145,73 A52.479,52.479 0 0,1 163,55 A26.239,26.239 0 0,1 172,64 A78.718,78.718 0 0,1 145,91 A37.108,37.108 0 0,1 145,73 A0,0 0 0,1 145,73"/>
  <path id="seg-031" data-thread-id="19" fill="#96da52" stroke="#201f1d" stroke-width="1" d="M163,55 A26.239,26.239 0 0,1 172,46 A52.479,52.479 0 0,1 190,64 A26.239,26.239 0 0,1 181,73 A52.479,52.479 0 0,1 163,55 A0,0 0 0,1 163,55"/>
  <path id="seg-032" data-thread-id="10" fill="#272f7c" stroke="#201f1d" stroke-width="1" d="M181,73 A78.718,78.718 0 0,1 208,46 A26.239,26.239 0 0,1 217,55 A78.718,78.718 0 0,1 190,82 A26.239,26.239 0 0,1 181,73 A0,0 0 0,1 181,73"/>
  <path id="seg-033" data-thread-id="17" fill="#96da52" stroke="#201f1d" stroke-width="1" d="M217,55 A52.479,52.479 0 0,1 235,73 A37.108,37.108 0 0,1 235,91 A78.718,78.718 0 0,1 208,64 A26.239,26.239 0 0,1 217,55 A0,0 0 0,1 217,55"/>
  <path id="seg-034" data-thread-id="17" fill="#96da52" stroke="#201f1d" stroke-width="1" d="M244,73 A52.479,52.479 0 0,1 262,91 A26.239,26.239 0 0,1 253,100 A26.239,26.239 0 0,1 244,91 A37.108,37.108 0 0,1 244,73 A0,0 0 0,1 244,73"/>
  <path id="seg-035" data-thread-id="1" fill="#96da52" stroke="#201f1d" stroke-width="1" d="M262,91 A26.239,26.239 0 0,1 253,82 A52.479,52.479 0 0,1 271,64 A37.108,37.108 0 0,1 271,82 A26.239,26.239 0 0,1 262,91 A0,0 0 0,1 262,91"/>
  <path id="seg-036" data-thread-id="20" fill="#272f7c" stroke="#201f1d" stroke-width="1" d="M10,100 A52.479,52.479 0 0,1 28,82 A26.239,26.239 0 0,1 37,91 A78.718,78.718 0 0,1 10,118 A37.108,37.108 0 0,1 10,100 A0,0 0 0,1 10,100"/>
  <path id="seg-037" data-thread-id="15" fill="#88abfb" stroke="#201f1d" stroke-width="1" d="M28,82 A26.239,26.239 0 0,1 37,73 A52.479,52.479 0 0,1 55,91 A26.239,26.239 0 0,1 46,100 A52.479,52.479 0 0,1 28,82 A0,0 0 0,1 28,82"/>
  <path id="seg-038" data-thread-id="14" fill="#88abfb" stroke="#201f1d" stroke-width="1" d="M46,100 A78.718,78.718 0 0,1 73,73 A26.239,26.239 0 0,1 82,82 A78.718,78.718 0 0,1 55,109 A26.239,26.239 0 0,1 46,100 A0,0 0 0,1 46,100"/>
  <path id="seg-039" data-thread-id="9" fill="#96da52" stroke="#201f1d" stroke-width="1" d="M82,82 A52.479,52.479 0 0,1 100,100 A37.108,37.108 0 0,1 100,118 A78.718,78.718 0 0,1 73,91 A26.239,26.239 0 0,1 82,82 A0,0 0 0,1 82,82"/>
  <path id="seg-040" data-thread-id="9" fill="#96da52" stroke="#201f1d" stroke-width="1" d="M109,100 A52.479,52.479 0 0,1 127,118 A26.239,26.239 0 0,1 118,127 A26.239,26.239 0 0,1 109,118 A37.108,37.108 0 0,1 109,100 A0,0 0 0,1 109,100"/>
  <path id="seg-041" data-thread-id="8" fill="#96da52" stroke="#201f1d" stroke-width="1" d="M127,118 A26.239,26.239 0 0,1 118,109 A52.479,52.479 0 0,1 136,91 A37.108,37.108 0 0,1 136,109 A26.239,26.239 0 0,1 127,118 A0,0 0 0,1 127,118"/>
  <path id="seg-042" data-thread-id="8" fill="#96da52" stroke="#201f1d" stroke-width="1" d="M145,91 A52.479,52.479 0 0,1 163,73 A26.239,26.239 0 0,1 172,82 A78.718,78.718 0 0,1 145,109 A37.108,37.108 0 0,1 145,91 A0,0 0 0,1 145,91"/>
  <path id="seg-043" data-thread-id="18" fill="#96da52" stroke="#201f1d" stroke-width="1" d="M163,73 A26.239,26.239 0 0,1 172,64 A52.479,52.479 0 0,1 190,82 A26.239,26.239 0 0,1 181,91 A52.479,52.479 0 0,1 163,73 A0,0 0 0,1 163,73"/>
  <path id="seg-044" data-thread-id="11" fill="#272f7c" stroke="#201f1d" stroke-width="1" d="M181,91 A78.718,78.718 0 0,1 208,64 A26.239,26.239 0 0,1 217,73 A78.718,78.718 0 0,1 190,100 A26.239,26.239 0 0,1 181,91 A0,0 0 0,1 181,91"/>
  <path id="seg-045" data-thread-id="21" fill="#272f7c" stroke="#201f1d" stroke-width="1" d="M217,73 A52.479,52.479 0 0,1 235,91 A37.108,37.108 0 0,1 235,109 A78.718,78.718 0 0,1 208,82 A26.239,26.239 0 0,1 217,73 A0,0 0 0,1 217,73"/>
  <path id="seg-046" data-thread-id="21" fill="#272f7c" stroke="#201f1d" stroke-width="1" d="M244,91 A52.479,52.479 0 0,1 262,109 A26.239,26.239 0 0,1 253,118 A26.239,26.239 0 0,1 244,109 A37.108,37.108 0 0,1 244,91 A0,0 0 0,1 244,91"/>
  <path id="seg-047" data-thread-id="0" fill="#96da52" stroke="#201f1d" stroke-width="1" d="M262,109 A26.239,26.239 0 0,1 253,100 A52.479,52.479 0 0,1 271,82 A37.108,37.108 0 0,1 271,100 A26.239,26.239 0 0,1 262,109 A0,0 0 0,1 262,109"/>
  <path id="seg-048" data-thread-id="19" fill="#96da52" stroke="#201f1d" stroke-width="1" d="M10,118 A52.479,52.479 0 0,1 28,100 A26.239,26.239 0 0,1 37,109 A78.718,78.718 0 0,1 10,136 A37.108,37.108 0 0,1 10,118 A0,0 0 0,1 10,118"/>
  <path id="seg-049" data-thread-id="16" fill="#96da52" stroke="#201f1d" stroke-width="1" d="M28,100 A26.239,26.239 0 0,1 37,91 A52.479,52.479 0 0,1 55,109 A26.239,26.239 0 0,1 46,118 A52.479,52.479 0 0,1 28,100 A0,0 0 0,1 28,100"/>
  <path id="seg-050" data-thread-id="13" fill="#272f7c" stroke="#201f1d" stroke-width="1" d="M46,118 A78.718,78.718 0 0,1 73,91 A26.239,26.239 0 0,1 82,100 A78.718,78.718 0 0,1 55,127 A26.239,26.239 0 0,1 46,118 A0,0 0 0,1 46,118"/>
  <path id="seg-051" data-thread-id="10" fill="#272f7c" stroke="#201f1d" stroke-width="1" d="M82,100 A52.479,52.479 0 0,1 100,118 A37.108,37.108 0 0,1 100,136 A78.718,78.718 0 0,1 73,109 A26.239,26.239 0 0,1 82,100 A0,0 0 0,1 82,100"/>
  <path id="seg-052" data-thread-id="10" fill="#272f7c" stroke="#201f1d" stroke-width="1" d="M109,118 A52.479,52.479 0 0,1 127,136 A26.239,26.239 0 0,1 118,145 A26.239,26.239 0 0,1 109,136 A37.108,37.108 0 0,1 109,118 A0,0 0 0,1 109,118"/>
  <path id="seg-053" data-thread-id="7" fill="#88abfb" stroke="#201f1d" stroke-width="1" d="M127,136 A26.239,26.239 0 0,1 118,127 A52.479,52.479 0 0,1 136,109 A37.108,37.108 0 0,1 136,127 A26.239,26.239 0 0,1 127,136 A0,0 0 0,1 127,136"/>
  <path id="seg-054" data-thread-id="7" fill="#88abfb" stroke="#201f1d" stroke-width="1" d="M145,109 A52.479,52.479 0 0,1 163,91 A26.239,26.239 0 0,1 172,100 A78.718,78.718 0 0,1 145,127 A37.108,37.108 0 0,1 145,109 A0,0 0 0,1 145,109"/>
  <path id="seg-055" data-thread-id="3" fill="#272f7c" stroke="#201f1d" stroke-width="1" d="M163,91 A26.239,26.239 0 0,1 172,82 A52.479,52.479 0 0,1 190,100 A26.239,26.239 0 0,1 181,109 A52.479,52.479 0 0,1 163,91 A0,0 0 0,1 163,91"/>
  <path id="seg-056" data-thread-id="2" fill="#272f7c" stroke="#201f1d" stroke-width="1" d="M181,109 A78.718,78.718 0 0,1 208,82 A26.239,26.239 0 0,1 217,91 A78.718,78.718 0 0,1 190,118 A26.239,26.239 0 0,1 181,109 A0,0 0 0,1 181,109"/>
  <path id="seg-057" data-thread-id="22" fill="#88abfb" stroke="#201f1d" stroke-width="1" d="M217,91 A52.479,52.479 0 0,1 235,109 A37.108,37.108 0 0,1 235,127 A78.718,78.718 0 0,1 208,100 A26.239,26.239 0 0,1 217,91 A0,0 0 0,1 217,91"/>
  <path id="seg-058" data-thread-id="22" fill="#88abfb" stroke="#201f1d" stroke-width="1" d="M244,109 A52.479,52.479 0 0,1 262,127 A26.239,26.239 0 0,1 253,136 A26.239,26.239 0 0,1 244,127 A37.108,37.108 0 0,1 244,109 A0,0 0 0,1 244,109"/>
  <path id="seg-059" data-thread-id="20" fill="#272f7c" stroke="#201f1d" stroke-width="1" d="M262,127 A26.239,26.239 0 0,1 253,118 A52.479,52.479 0 0,1 271,100 A37.108,37.108 0 0,1 271,118 A26.239,26.239 0 0,1 262,127 A0,0 0 0,1 262,127"/>
  <path id="seg-060" data-thread-id="18" fill="#96da52" stroke="#201f1d" stroke-width="1" d="M10,136 A52.479,52.479 0 0,1 28,118 A26.239,26.239 0 0,1 37,127 A78.718,78.718 0 0,1 10,154 A37.108,37.108 0 0,1 10,136 A0,0 0 0,1 10,136"/>
  <path id="seg-061" data-thread-id="17" fill="#96da52" stroke="#201f1d" stroke-width="1" d="M28,118 A26.239,26.239 0 0,1 37,109 A52.479,52.479 0 0,1 55,127 A26.239,26.239 0 0,1 46,136 A52.479,52.479 0 0,1 28,118 A0,0 0 0,1 28,118"/>
  <path id="seg-062" data-thread-id="12" fill="#272f7c" stroke="#201f1d" stroke-width="1" d="M46,136 A78.718,78.718 0 0,1 73,109 A26.239,26.239 0 0,1 82,118 A78.718,78.718 0 0,1 55,145 A26.239,26.239 0 0,1 46,136 A0,0 0 0,1 46,136"/>
  <path id="seg-063" data-thread-id="11" fill="#272f7c" stroke="#201f1d" stroke-width="1" d="M82,118 A52.479,52.479 0 0,1 100,136 A37.108,37.108 0 0,1 100,154 A78.718,78.718 0 0,1 73,127 A26.239,26.239 0 0,1 82,118 A0,0 0 0,1 82,118"/>
  <path id="seg-064" data-thread-id="11" fill="#272f7c" stroke="#201f1d" stroke-width="1" d="M109,136 A52.479,52.479 0 0,1 127,154 A26.239,26.239 0 0,1 118,163 A26.239,26.239 0 0,1 109,154 A37.108,37.108 0 0,1 109,136 A0,0 0 0,1 109,136"/>
  <path id="seg-065" data-thread-id="6" fill="#88abfb" stroke="#201f1d" stroke-width="1" d="M127,154 A26.239,26.239 0 0,1 118,145 A52.479,52.479 0 0,1 136,127 A37.108,37.108 0 0,1 136,145 A26.239,26.239 0 0,1 127,154 A0,0 0 0,1 127,154"/>
  <path id="seg-066" data-thread-id="6" fill="#88abfb" stroke="#201f1d" stroke-width="1" d="M145,127 A52.479,52.479 0 0,1 163,109 A26.239,26.239 0 0,1 172,118 A78.718,78.718 0 0,1 145,145 A37.108,37.108 0 0,1 145,127 A0,0 0 0,1 145,127"/>
  <path id="seg-067" data-thread-id="4" fill="#88abfb" stroke="#201f1d" stroke-width="1" d="M163,109 A26.239,26.239 0 0,1 172,100 A52.479,52.479 0 0,1 190,118 A26.239,26.239 0 0,1 181,127 A52.479,52.479 0 0,1 163,109 A0,0 0 0,1 163,109"/>
  <path id="seg-068" data-thread-id="1" fill="#96da52" stroke="#201f1d" stroke-width="1" d="M181,127 A78.718,78.718 0 0,1 208,100 A26.239,26.239 0 0,1 217,109 A78.718,78.718 0 0,1 190,136 A26.239,26.239 0 0,1 181,127 A0,0 0 0,1 181,127"/>
  <path id="seg-069" data-thread-id="23" fill="#88abfb" stroke="#201f1d" stroke-width="1" d="M217,109 A52.479,52.479 0 0,1 235,127 A37.108,37.108 0 0,1 235,145 A78.718,78.718 0 0,1 208,118 A26.239,26.239 0 0,1 217,109 A0,0 0 0,1 217,109"/>
  <path id="seg-070" data-thread-id="23" fill="#88abfb" stroke="#201f1d" stroke-width="1" d="M244,127 A52.479,52.479 0 0,1 262,145 A26.239,26.239 0 0,1 253,154 A26.239,26.239 0 0,1 244,145 A37.108,37.108 0 0,1 244,127 A0,0 0 0,1 244,127"/>
  <path id="seg-071" data-thread-id="19" fill="#96da52" stroke="#201f1d" stroke-width="1" d="M262,145 A26.239,26.239 0 0,1 253,136 A52.479,52.479 0 0,1 271,118 A37.108,37.108 0 0,1 271,136 A26.239,26.239 0 0,1 262,145 A0,0 0 0,1 262,145"/>
  <path id="seg-072" data-thread-id="3" fill="#272f7c" stroke="#201f1d" stroke-width="1" d="M10,154 A52.479,52.479 0 0,1 28,136 A26.239,26.239 0 0,1 37,145 A78.718,78.718 0 0,1 10,172 A37.108,37.108 0 0,1 10,154 A0,0 0 0,1 10,154"/>
  <path id="seg-073" data-thread-id="21" fill="#272f7c" stroke="#201f1d" stroke-width="1" d="M28,136 A26.239,26.239 0 0,1 37,127 A52.479,52.479 0 0,1 55,145 A26.239,26.239 0 0,1 46,154 A52.479,52.479 0 0,1 28,136 A0,0 0 0,1 28,136"/>
  <path id="seg-074" data-thread-id="8" fill="#96da52" stroke="#201f1d" stroke-width="1" d="M46,154 A78.718,78.718 0 0,1 73,127 A26.239,26.239 0 0,1 82,136 A78.718,78.718 0 0,1 55,163 A26.239,26.239 0 0,1 46,154 A0,0 0 0,1 46,154"/>
  <path id="seg-075" data-thread-id="2" fill="#272f7c" stroke="#201f1d" stroke-width="1" d="M82,136 A52.479,52.479 0 0,1 100,154 A37.108,37.108 0 0,1 100,172 A78.718,78.718 0 0,1 73,145 A26.239,26.239 0 0,1 82,136 A0,0 0 0,1 82,136"/>
  <path id="seg-076" data-thread-id="2" fill="#272f7c" stroke="#201f1d" stroke-width="1" d="M109,154 A52.479,52.479 0 0,1 127,172 A26.239,26.239 0 0,1 118,181 A26.239,26.239 0 0,1 109,172 A37.108,37.108 0 0,1 109,154 A0,0 0 0,1 109,154"/>
  <path id="seg-077" data-thread-id="15" fill="#88abfb" stroke="#201f1d" stroke-width="1" d="M127,172 A26.239,26.239 0 0,1 118,163 A52.479,52.479 0 0,1 136,145 A37.108,37.108 0 0,1 136,163 A26.239,26.239 0 0,1 127,172 A0,0 0 0,1 127,172"/>
  <path id="seg-078" data-thread-id="15" fill="#88abfb" stroke="#201f1d" stroke-width="1" d="M145,145 A52.479,52.479 0 0,1 163,127 A26.239,26.239 0 0,1 172,136 A78.718,78.718 0 0,1 145,163 A37.108,37.108 0 0,1 145,145 A0,0 0 0,1 145,145"/>
  <path id="seg-079" data-thread-id="5" fill="#88abfb" stroke="#201f1d" stroke-width="1" d="M163,127 A26.239,26.239 0 0,1 172,118 A52.479,52.479 0 0,1 190,136 A26.239,26.239 0 0,1 181,145 A52.479,52.479 0 0,1 163,127 A0,0 0 0,1 163,127"/>
  <path id="seg-080" data-thread-id="0" fill="#96da52" stroke="#201f1d" stroke-width="1" d="M181,145 A78.718,78.718 0 0,1 208,118 A26.239,26.239 0 0,1 217,127 A78.718,78.718 0 0,1 190,154 A26.239,26.239 0 0,1 181,145 A0,0 0 0,1 181,145"/>
  <path id="seg-081" data-thread-id="14" fill="#88abfb" stroke="#201f1d" stroke-width="1" d="M217,127 A52.479,52.479 0 0,1 235,145 A37.108,37.108 0 0,1 235,163 A78.718,78.718 0 0,1 208,136 A26.239,26.239 0 0,1 217,127 A0,0 0 0,1 217,127"/>
  <path id="seg-082" data-thread-id="14" fill="#88abfb" stroke="#201f1d" stroke-width="1" d="M244,145 A52.479,52.479 0 0,1 262,163 A26.239,26.239 0 0,1 253,172 A26.239,26.239 0 0,1 244,163 A37.108,37.108 0 0,1 244,145 A0,0 0 0,1 244,145"/>
  <path id="seg-083" data-thread-id="18" fill="#96da52" stroke="#201f1d" stroke-width="1" d="M262,163 A26.239,26.239 0 0,1 253,154 A52.479,52.479 0 0,1 271,136 A37.108,37.108 0 0,1 271,154 A26.239,26.239 0 0,1 262,163 A0,0 0 0,1 262,163"/>
  <path id="seg-084" data-thread-id="4" fill="#88abfb" stroke="#201f1d" stroke-width="1" d="M10,172 A52.479,52.479 0 0,1 28,154 A26.239,26.239 0 0,1 37,163 A78.718,78.718 0 0,1 10,190 A37.108,37.108 0 0,1 10,172 A0,0 0 0,1 10,172"/>
  <path id="seg-085" data-thread-id="22" fill="#88abfb" stroke="#201f1d" stroke-width="1" d="M28,154 A26.239,26.239 0 0,1 37,145 A52.479,52.479 0 0,1 55,163 A26.239,26.239 0 0,1 46,172 A52.479,52.479 0 0,1 28,154 A0,0 0 0,1 28,154"/>
  <path id="seg-086" data-thread-id="7" fill="#88abfb" stroke="#201f1d" stroke-width="1" d="M46,172 A78.718,78.718 0 0,1 73,145 A26.239,26.239 0 0,1 82,154 A78.718,78.718 0 0,1 55,181 A26.239,26.239 0 0,1 46,172 A0,0 0 0,1 46,172"/>
  <path id="seg-087" data-thread-id="1" fill="#96da52" stroke="#201f1d" stroke-width="1" d="M82,154 A52.479,52.479 0 0,1 100,172 A37.108,37.108 0 0,1 100,190 A78.718,78.718 0 0,1 73,163 A26.239,26.239 0 0,1 82,154 A0,0 0 0,1 82,154"/>
  <path id="seg-088" data-thread-id="1" fill="#96da52" stroke="#201f1d" stroke-width="1" d="M109,172 A52.479,52.479 0 0,1 127,190 A26.239,26.239 0 0,1 118,199 A26.239,26.239 0 0,1 109,190 A37.108,37.108 0 0,1 109,172 A0,0 0 0,1 109,172"/>
  <path id="seg-089" data-thread-id="16" fill="#96da52" stroke="#201f1d" stroke-width="1" d="M127,190 A26.239,26.239 0 0,1 118,181 A52.479,52.479 0 0,1 136,163 A37.108,37.108 0 0,1 136,181 A26.239,26.239 0 0,1 127,190 A0,0 0 0,1 127,190"/>
  <path id="seg-090" data-thread-id="16" fill="#96da52" stroke="#201f1d" stroke-width="1" d="M145,163 A52.479,52.479 0 0,1 163,145 A26.239,26.239 0 0,1 172,154 A78.718,78.718 0 0,1 145,181 A37.108,37.108 0 0,1 145,163 A0,0 0 0,1 145,163"/>
  <path id="seg-091" data-thread-id="9" fill="#96da52" stroke="#201f1d" stroke-width="1" d="M163,145 A26.239,26.239 0 0,1 172,136 A52.479,52.479 0 0,1 190,154 A26.239,26.239 0 0,1 181,163 A52.479,52.479 0 0,1 163,145 A0,0 0 0,1 163,145"/>
  <path id="seg-092" data-thread-id="20" fill="#272f7c" stroke="#201f1d" stroke-width="1" d="M181,163 A78.718,78.718 0 0,1 208,136 A26.239,26.239 0 0,1 217,145 A78.718,78.718 0 0,1 190,172 A26.239,26.239 0 0,1 181,163 A0,0 0 0,1 181,163"/>
  <path id="seg-093" data-thread-id="13" fill="#272f7c" stroke="#201f1d" stroke-width="1" d="M217,145 A52.479,52.479 0 0,1 235,163 A37.108,37.108 0 0,1 235,181 A78.718,78.718 0 0,1 208,154 A26.239,26.239 0 0,1 217,145 A0,0 0 0,1 217,145"/>
  <path id="seg-094" data-thread-id="13" fill="#272f7c" stroke="#201f1d" stroke-width="1" d="M244,163 A52.479,52.479 0 0,1 262,181 A26.239,26.239 0 0,1 253,190 A26.239,26.239 0 0,1 244,181 A37.108,37.108 0 0,1 244,163 A0,0 0 0,1 244,163"/>
  <path id="seg-095" data-thread-id="3" fill="#272f7c" stroke="#201f1d" stroke-width="1" d="M262,181 A26.239,26.239 0 0,1 253,172 A52.479,52.479 0 0,1 271,154 A37.108,37.108 0 0,1 271,172 A26.239,26.239 0 0,1 262,181 A0,0 0 0,1 262,181"/>
  <path id="seg-096" data-thread-id="5" fill="#88abfb" stroke="#201f1d" stroke-width="1" d="M10,190 A52.479,52.479 0 0,1 28,172 A26.239,26.239 0 0,1 37,181 A78.718,78.718 0 0,1 10,208 A37.108,37.108 0 0,1 10,190 A0,0 0 0,1 10,190"/>
  <path id="seg-097" data-thread-id="23" fill="#88abfb" stroke="#201f1d" stroke-width="1" d="M28,172 A26.239,26.239 0 0,1 37,163 A52.479,52.479 0 0,1 55,181 A26.239,26.239 0 0,1 46,190 A52.479,52.479 0 0,1 28,172 A0,0 0 0,1 28,172"/>
  <path id="seg-098" data-thread-id="6" fill="#88abfb" stroke="#201f1d" stroke-width="1" d="M46,190 A78.718,78.718 0 0,1 73,163 A26.239,26.239 0 0,1 82,172 A78.718,78.718 0 0,1 55,199 A26.239,26.239 0 0,1 46,190 A0,0 0 0,1 46,190"/>
  <path id="seg-099" data-thread-id="0" fill="#96da52" stroke="#201f1d" stroke-width="1" d="M82,172 A52.479,52.479 0 0,1 100,190 A37.108,37.108 0 0,1 100,208 A78.718,78.718 0 0,1 73,181 A26.239,26.239 0 0,1 82,172 A0,0 0 0,1 82,172"/>
  <path id="seg-100" data-thread-id="0" fill="#96da52" stroke="#201f1d" stroke-width="1" d="M109,190 A52.479,52.479 0 0,1 127,208 A26.239,26.239 0 0,1 118,217 A26.239,26.239 0 0,1 109,208 A37.108,37.108 0 0,1 109,190 A0,0 0 0,1 109,190"/>
  <path id="seg-101" data-thread-id="17" fill="#96da52" stroke="#201f1d" stroke-width="1" d="M127,208 A26.239,26.239 0 0,1 118,199 A52.479,52.479 0 0,1 136,181 A37.108,37.108 0 0,1 136,199 A26.239,26.239 0 0,1 127,208 A0,0 0 0,1 127,208"/>
  <path id="seg-102" data-thread-id="17" fill="#96da52" stroke="#201f1d" stroke-width="1" d="M145,181 A52.479,52.479 0 0,1 163,163 A26.239,26.239 0 0,1 172,172 A78.718,78.718 0 0,1 145,199 A37.108,37.108 0 0,1 145,181 A0,0 0 0,1 145,181"/>
  <path id="seg-103" data-thread-id="10" fill="#272f7c" stroke="#201f1d" stroke-width="1" d="M163,163 A26.239,26.239 0 0,1 172,154 A52.479,52.479 0 0,1 190,172 A26.239,26.239 0 0,1 181,181 A52.479,52.479 0 0,1 163,163 A0,0 0 0,1 163,163"/>
  <path id="seg-104" data-thread-id="19" fill="#96da52" stroke="#201f1d" stroke-width="1" d="M181,181 A78.718,78.718 0 0,1 208,154 A26.239,26.239 0 0,1 217,163 A78.718,78.718 0 0,1 190,190 A26.239,26.239 0 0,1 181,181 A0,0 0 0,1 181,181"/>
  <path id="seg-105" data-thread-id="12" fill="#272f7c" stroke="#201f1d" stroke-width="1" d="M217,163 A52.479,52.479 0 0,1 235,181 A37.108,37.108 0 0,1 235,199 A78.718,78.718 0 0,1 208,172 A26.239,26.239 0 0,1 217,163 A0,0 0 0,1 217,163"/>
  <path id="seg-106" data-thread-id="12" fill="#272f7c" stroke="#201f1d" stroke-width="1" d="M244,181 A52.479,52.479 0 0,1 262,199 A26.239,26.239 0 0,1 253,208 A26.239,26.239 0 0,1 244,199 A37.108,37.108 0 0,1 244,181 A0,0 0 0,1 244,181"/>
  <path id="seg-107" data-thread-id="4" fill="#88abfb" stroke="#201f1d" stroke-width="1" d="M262,199 A26.239,26.239 0 0,1 253,190 A52.479,52.479 0 0,1 271,172 A37.108,37.108 0 0,1 271,190 A26.239,26.239 0 0,1 262,199 A0,0 0 0,1 262,199"/>
  <path id="seg-108" data-thread-id="9" fill="#96da52" stroke="#201f1d" stroke-width="1" d="M10,208 A52.479,52.479 0 0,1 28,190 A26.239,26.239 0 0,1 37,199 A78.718,78.718 0 0,1 10,226 A37.108,37.108 0 0,1 10,208 A0,0 0 0,1 10,208"/>
  <path id="seg-109" data-thread-id="14" fill="#88abfb" stroke="#201f1d" stroke-width="1" d="M28,190 A26.239,26.239 0 0,1 37,181 A52.479,52.479 0 0,1 55,199 A26.239,26.239 0 0,1 46,208 A52.479,52.479 0 0,1 28,190 A0,0 0 0,1 28,190"/>
  <path id="seg-110" data-thread-id="15" fill="#88abfb" stroke="#201f1d" stroke-width="1" d="M46,208 A78.718,78.718 0 0,1 73,181 A26.239,26.239 0 0,1 82,190 A78.718,78.718 0 0,1 55,217 A26.239,26.239 0 0,1 46,208 A0,0 0 0,1 46,208"/>
  <path id="seg-111" data-thread-id="20" fill="#272f7c" stroke="#201f1d" stroke-width="1" d="M82,190 A52.479,52.479 0 0,1 100,208 A37.108,37.108 0 0,1 100,226 A78.718,78.718 0 0,1 73,199 A26.239,26.239 0 0,1 82,190 A0,0 0 0,1 82,190"/>
  <path id="seg-112" data-thread-id="20" fill="#272f7c" stroke="#201f1d" stroke-width="1" d="M109,208 A52.479,52.479 0 0,1 127,226 A26.239,26.239 0 0,1 118,235 A26.239,26.239 0 0,1 109,226 A37.108,37.108 0 0,1 109,208 A0,0 0 0,1 109,208"/>
  <path id="seg-113" data-thread-id="21" fill="#272f7c" stroke="#201f1d" stroke-width="1" d="M127,226 A26.239,26.239 0 0,1 118,217 A52.479,52.479 0 0,1 136,199 A37.108,37.108 0 0,1 136,217 A26.239,26.239 0 0,1 127,226 A0,0 0 0,1 127,226"/>
  <path id="seg-114" data-thread-id="21" fill="#272f7c" stroke="#201f1d" stroke-width="1" d="M145,199 A52.479,52.479 0 0,1 163,181 A26.239,26.239 0 0,1 172,190 A78.718,78.718 0 0,1 145,217 A37.108,37.108 0 0,1 145,199 A0,0 0 0,1 145,199"/>
  <path id="seg-115" data-thread-id="11" fill="#272f7c" stroke="#201f1d" stroke-width="1" d="M163,181 A26.239,26.239 0 0,1 172,172 A52.479,52.479 0 0,1 190,190 A26.239,26.239 0 0,1 181,199 A52.479,52.479 0 0,1 163,181 A0,0 0 0,1 163,181"/>
  <path id="seg-116" data-thread-id="18" fill="#96da52" stroke="#201f1d" stroke-width="1" d="M181,199 A78.718,78.718 0 0,1 208,172 A26.239,26.239 0 0,1 217,181 A78.718,78.718 0 0,1 190,208 A26.239,26.239 0 0,1 181,199 A0,0 0 0,1 181,199"/>
  <path id="seg-117" data-thread-id="8" fill="#96da52" stroke="#201f1d" stroke-width="1" d="M217,181 A52.479,52.479 0 0,1 235,199 A37.108,37.108 0 0,1 235,217 A78.718,78.718 0 0,1 208,190 A26.239,26.239 0 0,1 217,181 A0,0 0 0,1 217,181"/>
  <path id="seg-118" data-thread-id="8" fill="#96da52" stroke="#201f1d" stroke-width="1" d="M244,199 A52.479,52.479 0 0,1 262,217 A26.239,26.239 0 0,1 253,226 A26.239,26.239 0 0,1 244,217 A37.108,37.108 0 0,1 244,199 A0,0 0 0,1 244,199"/>
  <path id="seg-119" data-thread-id="5" fill="#88abfb" stroke="#201f1d" stroke-width="1" d="M262,217 A26.239,26.239 0 0,1 253,208 A52.479,52.479 0 0,1 271,190 A37.108,37.108 0 0,1 271,208 A26.239,26.239 0 0,1 262,217 A0,0 0 0,1 262,217"/>
  <path id="seg-120" data-thread-id="10" fill="#272f7c" stroke="#201f1d" stroke-width="1" d="M10,226 A52.479,52.479 0 0,1 28,208 A26.239,26.239 0 0,1 37,217 A78.718,78.718 0 0,1 10,244 A37.108,37.108 0 0,1 10,226 A0,0 0 0,1 10,226"/>
  <path id="seg-121" data-thread-id="13" fill="#272f7c" stroke="#201f1d" stroke-width="1" d="M28,208 A26.239,26.239 0 0,1 37,199 A52.479,52.479 0 0,1 55,217 A26.239,26.239 0 0,1 46,226 A52.479,52.479 0 0,1 28,208 A0,0 0 0,1 28,208"/>
  <path id="seg-122" data-thread-id="16" fill="#96da52" stroke="#201f1d" stroke-width="1" d="M46,226 A78.718,78.718 0 0,1 73,199 A26.239,26.239 0 0,1 82,208 A78.718,78.718 0 0,1 55,235 A26.239,26.239 0 0,1 46,226 A0,0 0 0,1 46,226"/>
  <path id="seg-123" data-thread-id="19" fill="#96da52" stroke="#201f1d" stroke-width="1" d="M82,208 A52.479,52.479 0 0,1 100,226 A37.108,37.108 0 0,1 100,244 A78.718,78.718 0 0,1 73,217 A26.239,26.239 0 0,1 82,208 A0,0 0 0,1 82,208"/>
  <path id="seg-124" data-thread-id="19" fill="#96da52" stroke="#201f1d" stroke-width="1" d="M109,226 A52.479,52.479 0 0,1 127,244 A26.239,26.239 0 0,1 118,253 A26.239,26.239 0 0,1 109,244 A37.108,37.108 0 0,1 109,226 A0,0 0 0,1 109,226"/>
  <path id="seg-125" data-thread-id="22" fill="#88abfb" stroke="#201f1d" stroke-width="1" d="M127,244 A26.239,26.239 0 0,1 118,235 A52.479,52.479 0 0,1 136,217 A37.108,37.108 0 0,1 136,235 A26.239,26.239 0 0,1 127,244 A0,0 0 0,1 127,244"/>
  <path id="seg-126" data-thread-id="22" fill="#88abfb" stroke="#201f1d" stroke-width="1" d="M145,217 A52.479,52.479 0 0,1 163,199 A26.239,26.239 0 0,1 172,208 A78.718,78.718 0 0,1 145,235 A37.108,37.108 0 0,1 145,217 A0,0 0 0,1 145,217"/>
  <path id="seg-127" data-thread-id="2" fill="#272f7c" stroke="#201f1d" stroke-width="1" d="M163,199 A26.239,26.239 0 0,1 172,190 A52.479,52.479 0 0,1 190,208 A26.239,26.239 0 0,1 181,217 A52.479,52.479 0 0,1 163,199 A0,0 0 0,1 163,199"/>
  <path id="seg-128" data-thread-id="3" fill="#272f7c" stroke="#201f1d" stroke-width="1" d="M181,217 A78.718,78.718 0 0,1 208,190 A26.239,26.239 0 0,1 217,199 A78.718,78.718 0 0,1 190,226 A26.239,26.239 0 0,1 181,217 A0,0 0 0,1 181,217"/>
  <path id="seg-129" data-thread-id="7" fill="#88abfb" stroke="#201f1d" stroke-width="1" d="M217,199 A52.479,52.479 0 0,1 235,217 A37.108,37.108 0 0,1 235,235 A78.718,78.718 0 0,1 208,208 A26.239,26.239 0 0,1 217,199 A0,0 0 0,1 217,199"/>
  <path id="seg-130" data-thread-id="7" fill="#88abfb" stroke="#201f1d" stroke-width="1" d="M244,217 A52.479,52.479 0 0,1 262,235 A26.239,26.239 0 0,1 253,244 A26.239,26.239 0 0,1 244,235 A37.108,37.108 0 0,1 244,217 A0,0 0 0,1 244,217"/>
  <path id="seg-131" data-thread-id="9" fill="#96da52" stroke="#201f1d" stroke-width="1" d="M262,235 A26.239,26.239 0 0,1 253,226 A52.479,52.479 0 0,1 271,208 A37.108,37.108 0 0,1 271,226 A26.239,26.239 0 0,1 262,235 A0,0 0 0,1 262,235"/>
  <path id="seg-132" data-thread-id="11" fill="#272f7c" stroke="#201f1d" stroke-width="1" d="M10,244 A52.479,52.479 0 0,1 28,226 A26.239,26.239 0 0,1 37,235 A78.718,78.718 0 0,1 10,262 A37.108,37.108 0 0,1 10,244 A0,0 0 0,1 10,244"/>
  <path id="seg-133" data-thread-id="12" fill="#272f7c" stroke="#201f1d" stroke-width="1" d="M28,226 A26.239,26.239 0 0,1 37,217 A52.479,52.479 0 0,1 55,235 A26.239,26.239 0 0,1 46,244 A52.479,52.479 0 0,1 28,226 A0,0 0 0,1 28,226"/>
  <path id="seg-134" data-thread-id="17" fill="#96da52" stroke="#201f1d" stroke-width="1" d="M46,244 A78.718,78.718 0 0,1 73,217 A26.239,26.239 0 0,1 82,226 A78.718,78.718 0 0,1 55,253 A26.239,26.239 0 0,1 46,244 A0,0 0 0,1 46,244"/>
  <path id="seg-135" data-thread-id="18" fill="#96da52" stroke="#201f1d" stroke-width="1" d="M82,226 A52.479,52.479 0 0,1 100,244 A37.108,37.108 0 0,1 100,262 A78.718,78.718 0 0,1 73,235 A26.239,26.239 0 0,1 82,226 A0,0 0 0,1 82,226"/>
  <path id="seg-136" data-thread-id="18" fill="#96da52" stroke="#201f1d" stroke-width="1" d="M109,244 A52.479,52.479 0 0,1 127,262 A26.239,26.239 0 0,1 118,271 A26.239,26.239 0 0,1 109,262 A37.108,37.108 0 0,1 109,244 A0,0 0 0,1 109,244"/>
  <path id="seg-137" data-thread-id="23" fill="#88abfb" stroke="#201f1d" stroke-width="1" d="M127,262 A26.239,26.239 0 0,1 118,253 A52.479,52.479 0 0,1 136,235 A37.108,37.108 0 0,1 136,253 A26.239,26.239 0 0,1 127,262 A0,0 0 0,1 127,262"/>
  <path id="seg-138" data-thread-id="23" fill="#88abfb" stroke="#201f1d" stroke-width="1" d="M145,235 A52.479,52.479 0 0,1 163,217 A26.239,26.239 0 0,1 172,226 A78.718,78.718 0 0,1 145,253 A37.108,37.108 0 0,1 145,235 A0,0 0 0,1 145,235"/>
  <path id="seg-139" data-thread-id="1" fill="#96da52" stroke="#201f1d" stroke-width="1" d="M163,217 A26.239,26.239 0 0,1 172,208 A52.479,52.479 0 0,1 190,226 A26.239,26.239 0 0,1 181,235 A52.479,52.479 0 0,1 163,217 A0,0 0 0,1 163,217"/>
  <path id="seg-140" data-thread-id="4" fill="#88abfb" stroke="#201f1d" stroke-width="1" d="M181,235 A78.718,78.718 0 0,1 208,208 A26.239,26.239 0 0,1 217,217 A78.718,78.718 0 0,1 190,244 A26.239,26.239 0 0,1 181,235 A0,0 0 0,1 181,235"/>
  <path id="seg-141" data-thread-id="6" fill="#88abfb" stroke="#201f1d" stroke-width="1" d="M217,217 A52.479,52.479 0 0,1 235,235 A37.108,37.108 0 0,1 235,253 A78.718,78.718 0 0,1 208,226 A26.239,26.239 0 0,1 217,217 A0,0 0 0,1 217,217"/>
  <path id="seg-142" data-thread-id="6" fill="#88abfb" stroke="#201f1d" stroke-width="1" d="M244,235 A52.479,52.479 0 0,1 262,253 A26.239,26.239 0 0,1 253,262 A26.239,26.239 0 0,1 244,253 A37.108,37.108 0 0,1 244,235 A0,0 0 0,1 244,235"/>
  <path id="seg-143" data-thread-id="10" fill="#272f7c" stroke="#201f1d" stroke-width="1" d="M262,253 A26.239,26.239 0 0,1 253,244 A52.479,52.479 0 0,1 271,226 A37.108,37.108 0 0,1 271,244 A26.239,26.239 0 0,1 262,253 A0,0 0 0,1 262,253"/>
  <path id="seg-144" data-thread-id="2" fill="#272f7c" stroke="#201f1d" stroke-width="1" d="M10,262 A52.479,52.479 0 0,1 28,244 A26.239,26.239 0 0,1 37,253 A78.718,78.718 0 0,1 10,280 A37.108,37.108 0 0,1 10,262 A0,0 0 0,1 10,262"/>
  <path id="seg-145" data-thread-id="8" fill="#96da52" stroke="#201f1d" stroke-width="1" d="M28,244 A26.239,26.239 0 0,1 37,235 A52.479,52.479 0 0,1 55,253 A26.239,26.239 0 0,1 46,262 A52.479,52.479 0 0,1 28,244 A0,0 0 0,1 28,244"/>
  <path id="seg-146" data-thread-id="21" fill="#272f7c" stroke="#201f1d" stroke-width="1" d="M46,262 A78.718,78.718 0 0,1 73,235 A26.239,26.239 0 0,1 82,244 A78.718,78.718 0 0,1 55,271 A26.239,26.239 0 0,1 46,262 A0,0 0 0,1 46,262"/>
  <path id="seg-147" data-thread-id="3" fill="#272f7c" stroke="#201f1d" stroke-width="1" d="M82,244 A52.479,52.479 0 0,1 100,262 A37.108,37.108 0 0,1 100,280 A78.718,78.718 0 0,1 73,253 A26.239,26.239 0 0,1 82,244 A0,0 0 0,1 82,244"/>
  <path id="seg-148" data-thread-id="3" fill="#272f7c" stroke="#201f1d" stroke-width="1" d="M109,262 A52.479,52.479 0 0,1 127,280 A26.239,26.239 0 0,1 118,289 A26.239,26.239 0 0,1 109,280 A37.108,37.108 0 0,1 109,262 A0,0 0 0,1 109,262"/>
  <path id="seg-149" data-thread-id="14" fill="#88abfb" stroke="#201f1d" stroke-width="1" d="M127,280 A26.239,26.239 0 0,1 118,271 A52.479,52.479 0 0,1 136,253 A37.108,37.108 0 0,1 136,271 A26.239,26.239 0 0,1 127,280 A0,0 0 0,1 127,280"/>
  <path id="seg-150" data-thread-id="14" fill="#88abfb" stroke="#201f1d" stroke-width="1" d="M145,253 A52.479,52.479 0 0,1 163,235 A26.239,26.239 0 0,1 172,244 A78.718,78.718 0 0,1 145,271 A37.108,37.108 0 0,1 145,253 A0,0 0 0,1 145,253"/>
  <path id="seg-151" data-thread-id="0" fill="#96da52" stroke="#201f1d" stroke-width="1" d="M163,235 A26.239,26.239 0 0,1 172,226 A52.479,52.479 0 0,1 190,244 A26.239,26.239 0 0,1 181,253 A52.479,52.479 0 0,1 163,235 A0,0 0 0,1 163,235"/>
  <path id="seg-152" data-thread-id="5" fill="#88abfb" stroke="#201f1d" stroke-width="1" d="M181,253 A78.718,78.718 0 0,1 208,226 A26.239,26.239 0 0,1 217,235 A78.718,78.718 0 0,1 190,262 A26.239,26.239 0 0,1 181,253 A0,0 0 0,1 181,253"/>
  <path id="seg-153" data-thread-id="15" fill="#88abfb" stroke="#201f1d" stroke-width="1" d="M217,235 A52.479,52.479 0 0,1 235,253 A37.108,37.108 0 0,1 235,271 A78.718,78.718 0 0,1 208,244 A26.239,26.239 0 0,1 217,235 A0,0 0 0,1 217,235"/>
  <path id="seg-154" data-thread-id="15" fill="#88abfb" stroke="#201f1d" stroke-width="1" d="M244,253 A52.479,52.479 0 0,1 262,271 A26.239,26.239 0 0,1 253,280 A26.239,26.239 0 0,1 244,271 A37.108,37.108 0 0,1 244,253 A0,0 0 0,1 244,253"/>
  <path id="seg-155" data-thread-id="11" fill="#272f7c" stroke="#201f1d" stroke-width="1" d="M262,271 A26.239,26.239 0 0,1 253,262 A52.479,52.479 0 0,1 271,244 A37.108,37.108 0 0,1 271,262 A26.239,26.239 0 0,1 262,271 A0,0 0 0,1 262,271"/>
  <path id="seg-156" data-thread-id="1" fill="#96da52" stroke="#201f1d" stroke-width="1" d="M10,280 A52.479,52.479 0 0,1 28,262 A26.239,26.239 0 0,1 37,271 A78.718,78.718 0 0,1 10,298 A37.108,37.108 0 0,1 10,280 A0,0 0 0,1 10,280"/>
  <path id="seg-157" data-thread-id="7" fill="#88abfb" stroke="#201f1d" stroke-width="1" d="M28,262 A26.239,26.239 0 0,1 37,253 A52.479,52.479 0 0,1 55,271 A26.239,26.239 0 0,1 46,280 A52.479,52.479 0 0,1 28,262 A0,0 0 0,1 28,262"/>
  <path id="seg-158" data-thread-id="22" fill="#88abfb" stroke="#201f1d" stroke-width="1" d="M46,280 A78.718,78.718 0 0,1 73,253 A26.239,26.239 0 0,1 82,262 A78.718,78.718 0 0,1 55,289 A26.239,26.239 0 0,1 46,280 A0,0 0 0,1 46,280"/>
  <path id="seg-159" data-thread-id="4" fill="#88abfb" stroke="#201f1d" stroke-width="1" d="M82,262 A52.479,52.479 0 0,1 100,280 A37.108,37.108 0 0,1 100,298 A78.718,78.718 0 0,1 73,271 A26.239,26.239 0 0,1 82,262 A0,0 0 0,1 82,262"/>
  <path id="seg-160" data-thread-id="4" fill="#88abfb" stroke="#201f1d" stroke-width="1" d="M109,280 A52.479,52.479 0 0,1 127,298 A26.239,26.239 0 0,1 118,307 A26.239,26.239 0 0,1 109,298 A37.108,37.108 0 0,1 109,280 A0,0 0 0,1 109,280"/>
  <path id="seg-161" data-thread-id="13" fill="#272f7c" stroke="#201f1d" stroke-width="1" d="M127,298 A26.239,26.239 0 0,1 118,289 A52.479,52.479 0 0,1 136,271 A37.108,37.108 0 0,1 136,289 A26.239,26.239 0 0,1 127,298 A0,0 0 0,1 127,298"/>
  <path id="seg-162" data-thread-id="13" fill="#272f7c" stroke="#201f1d" stroke-width="1" d="M145,271 A52.479,52.479 0 0,1 163,253 A26.239,26.239 0 0,1 172,262 A78.718,78.718 0 0,1 145,289 A37.108,37.108 0 0,1 145,271 A0,0 0 0,1 145,271"/>
  <path id="seg-163" data-thread-id="20" fill="#272f7c" stroke="#201f1d" stroke-width="1" d="M163,253 A26.239,26.239 0 0,1 172,244 A52.479,52.479 0 0,1 190,262 A26.239,26.239 0 0,1 181,271 A52.479,52.479 0 0,1 163,253 A0,0 0 0,1 163,253"/>
  <path id="seg-164" data-thread-id="9" fill="#96da52" stroke="#201f1d" stroke-width="1" d="M181,271 A78.718,78.718 0 0,1 208,244 A26.239,26.239 0 0,1 217,253 A78.718,78.718 0 0,1 190,280 A26.239,26.239 0 0,1 181,271 A0,0 0 0,1 181,271"/>
  <path id="seg-165" data-thread-id="16" fill="#96da52" stroke="#201f1d" stroke-width="1" d="M217,253 A52.479,52.479 0 0,1 235,271 A37.108,37.108 0 0,1 235,289 A78.718,78.718 0 0,1 208,262 A26.239,26.239 0 0,1 217,253 A0,0 0 0,1 217,253"/>
  <path id="seg-166" data-thread-id="16" fill="#96da52" stroke="#201f1d" stroke-width="1" d="M244,271 A52.479,52.479 0 0,1 262,289 A26.239,26.239 0 0,1 253,298 A26.239,26.239 0 0,1 244,289 A37.108,37.108 0 0,1 244,271 A0,0 0 0,1 244,271"/>
  <path id="seg-167" data-thread-id="2" fill="#272f7c" stroke="#201f1d" stroke-width="1" d="M262,289 A26.239,26.239 0 0,1 253,280 A52.479,52.479 0 0,1 271,262 A37.108,37.108 0 0,1 271,280 A26.239,26.239 0 0,1 262,289 A0,0 0 0,1 262,289"/>
  <path id="seg-168" data-thread-id="0" fill="#96da52" stroke="#201f1d" stroke-width="1" d="M10,298 A52.479,52.479 0 0,1 28,280 A26.239,26.239 0 0,1 37,289 A78.718,78.718 0 0,1 10,316 A37.108,37.108 0 0,1 10,298 A0,0 0 0,1 10,298"/>
  <path id="seg-169" data-thread-id="6" fill="#88abfb" stroke="#201f1d" stroke-width="1" d="M28,280 A26.239,26.239 0 0,1 37,271 A52.479,52.479 0 0,1 55,289 A26.239,26.239 0 0,1 46,298 A52.479,52.479 0 0,1 28,280 A0,0 0 0,1 28,280"/>
  <path id="seg-170" data-thread-id="23" fill="#88abfb" stroke="#201f1d" stroke-width="1" d="M46,298 A78.718,78.718 0 0,1 73,271 A26.239,26.239 0 0,1 82,280 A78.718,78.718 0 0,1 55,307 A26.239,26.239 0 0,1 46,298 A0,0 0 0,1 46,298"/>
  <path id="seg-171" data-thread-id="5" fill="#88abfb" stroke="#201f1d" stroke-width="1" d="M82,280 A52.479,52.479 0 0,1 100,298 A37.108,37.108 0 0,1 100,316 A78.718,78.718 0 0,1 73,289 A26.239,26.239 0 0,1 82,280 A0,0 0 0,1 82,280"/>
  <path id="seg-172" data-thread-id="5" fill="#88abfb" stroke="#201f1d" stroke-width="1" d="M109,298 A52.479,52.479 0 0,1 127,316 A26.239,26.239 0 0,1 118,325 A26.239,26.239 0 0,1 109,316 A37.108,37.108 0 0,1 109,298 A0,0 0 0,1 109,298"/>
  <path id="seg-173" data-thread-id="12" fill="#272f7c" stroke="#201f1d" stroke-width="1" d="M127,316 A26.239,26.239 0 0,1 118,307 A52.479,52.479 0 0,1 136,289 A37.108,37.108 0 0,1 136,307 A26.239,26.239 0 0,1 127,316 A0,0 0 0,1 127,316"/>
  <path id="seg-174" data-thread-id="12" fill="#272f7c" stroke="#201f1d" stroke-width="1" d="M145,289 A52.479,52.479 0 0,1 163,271 A26.239,26.239 0 0,1 172,280 A78.718,78.718 0 0,1 145,307 A37.108,37.108 0 0,1 145,289 A0,0 0 0,1 145,289"/>
  <path id="seg-175" data-thread-id="19" fill="#96da52" stroke="#201f1d" stroke-width="1" d="M163,271 A26.239,26.239 0 0,1 172,262 A52.479,52.479 0 0,1 190,280 A26.239,26.239 0 0,1 181,289 A52.479,52.479 0 0,1 163,271 A0,0 0 0,1 163,271"/>
  <path id="seg-176" data-thread-id="10" fill="#272f7c" stroke="#201f1d" stroke-width="1" d="M181,289 A78.718,78.718 0 0,1 208,262 A26.239,26.239 0 0,1 217,271 A78.718,78.718 0 0,1 190,298 A26.239,26.239 0 0,1 181,289 A0,0 0 0,1 181,289"/>
  <path id="seg-177" data-thread-id="17" fill="#96da52" stroke="#201f1d" stroke-width="1" d="M217,271 A52.479,52.479 0 0,1 235,289 A37.108,37.108 0 0,1 235,307 A78.718,78.718 0 0,1 208,280 A26.239,26.239 0 0,1 217,271 A0,0 0 0,1 217,271"/>
  <path id="seg-178" data-thread-id="17" fill="#96da52" stroke="#201f1d" stroke-width="1" d="M244,289 A52.479,52.479 0 0,1 262,307 A26.239,26.239 0 0,1 253,316 A26.239,26.239 0 0,1 244,307 A37.108,37.108 0 0,1 244,289 A0,0 0 0,1 244,289"/>
  <path id="seg-179" data-thread-id="1" fill="#96da52" stroke="#201f1d" stroke-width="1" d="M262,307 A26.239,26.239 0 0,1 253,298 A52.479,52.479 0 0,1 271,280 A37.108,37.108 0 0,1 271,298 A26.239,26.239 0 0,1 262,307 A0,0 0 0,1 262,307"/>
  <path id="seg-180" data-thread-id="20" fill="#272f7c" stroke="#201f1d" stroke-width="1" d="M10,316 A52.479,52.479 0 0,1 28,298 A26.239,26.239 0 0,1 37,307 A78.718,78.718 0 0,1 10,334 A37.108,37.108 0 0,1 10,316 A0,0 0 0,1 10,316"/>
  <path id="seg-181" data-thread-id="15" fill="#88abfb" stroke="#201f1d" stroke-width="1" d="M28,298 A26.239,26.239 0 0,1 37,289 A52.479,52.479 0 0,1 55,307 A26.239,26.239 0 0,1 46,316 A52.479,52.479 0 0,1 28,298 A0,0 0 0,1 28,298"/>
  <path id="seg-182" data-thread-id="14" fill="#88abfb" stroke="#201f1d" stroke-width="1" d="M46,316 A78.718,78.718 0 0,1 73,289 A26.239,26.239 0 0,1 82,298 A78.718,78.718 0 0,1 55,325 A26.239,26.239 0 0,1 46,316 A0,0 0 0,1 46,316"/>
  <path id="seg-183" data-thread-id="9" fill="#96da52" stroke="#201f1d" stroke-width="1" d="M82,298 A52.479,52.479 0 0,1 100,316 A37.108,37.108 0 0,1 100,334 A78.718,78.718 0 0,1 73,307 A26.239,26.239 0 0,1 82,298 A0,0 0 0,1 82,298"/>
  <path id="seg-184" data-thread-id="9" fill="#96da52" stroke="#201f1d" stroke-width="1" d="M109,316 A52.479,52.479 0 0,1 127,334 A26.239,26.239 0 0,1 118,343 A26.239,26.239 0 0,1 109,334 A37.108,37.108 0 0,1 109,316 A0,0 0 0,1 109,316"/>
  <path id="seg-185" data-thread-id="8" fill="#96da52" stroke="#201f1d" stroke-width="1" d="M127,334 A26.239,26.239 0 0,1 118,325 A52.479,52.479 0 0,1 136,307 A37.108,37.108 0 0,1 136,325 A26.239,26.239 0 0,1 127,334 A0,0 0 0,1 127,334"/>
  <path id="seg-186" data-thread-id="8" fill="#96da52" stroke="#201f1d" stroke-width="1" d="M145,307 A52.479,52.479 0 0,1 163,289 A26.239,26.239 0 0,1 172,298 A78.718,78.718 0 0,1 145,325 A37.108,37.108 0 0,1 145,307 A0,0 0 0,1 145,307"/>
  <path id="seg-187" data-thread-id="18" fill="#96da52" stroke="#201f1d" stroke-width="1" d="M163,289 A26.239,26.239 0 0,1 172,280 A52.479,52.479 0 0,1 190,298 A26.239,26.239 0 0,1 181,307 A52.479,52.479 0 0,1 163,289 A0,0 0 0,1 163,289"/>
  <path id="seg-188" data-thread-id="11" fill="#272f7c" stroke="#201f1d" stroke-width="1" d="M181,307 A78.718,78.718 0 0,1 208,280 A26.239,26.239 0 0,1 217,289 A78.718,78.718 0 0,1 190,316 A26.239,26.239 0 0,1 181,307 A0,0 0 0,1 181,307"/>
  <path id="seg-189" data-thread-id="21" fill="#272f7c" stroke="#201f1d" stroke-width="1" d="M217,289 A52.479,52.479 0 0,1 235,307 A37.108,37.108 0 0,1 235,325 A78.718,78.718 0 0,1 208,298 A26.239,26.239 0 0,1 217,289 A0,0 0 0,1 217,289"/>
  <path id="seg-190" data-thread-id="21" fill="#272f7c" stroke="#201f1d" stroke-width="1" d="M244,307 A52.479,52.479 0 0,1 262,325 A26.239,26.239 0 0,1 253,334 A26.239,26.239 0 0,1 244,325 A37.108,37.108 0 0,1 244,307 A0,0 0 0,1 244,307"/>
  <path id="seg-191" data-thread-id="0" fill="#96da52" stroke="#201f1d" stroke-width="1" d="M262,325 A26.239,26.239 0 0,1 253,316 A52.479,52.479 0 0,1 271,298 A37.108,37.108 0 0,1 271,316 A26.239,26.239 0 0,1 262,325 A0,0 0 0,1 262,325"/>
</svg>
